<!DOCTYPE svg PUBLIC "-//W3C//DTD SVG 1.1//EN" "http://www.w3.org/Graphics/SVG/1.1/DTD/svg11.dtd">
<!-- Uploaded to: SVG Repo, www.svgrepo.com, Transformed by: SVG Repo Mixer Tools -->
<svg fill="#ffffff" version="1.1" id="Layer_1" xmlns="http://www.w3.org/2000/svg" xmlns:xlink="http://www.w3.org/1999/xlink" viewBox="0 0 512 512" xml:space="preserve" width="800px" height="800px" stroke="#ffffff">
<g id="SVGRepo_bgCarrier" stroke-width="0"/>
<g id="SVGRepo_tracerCarrier" stroke-linecap="round" stroke-linejoin="round"/>
<g id="SVGRepo_iconCarrier"> <g> <g> <path d="M315.535,250.047c-13.637,0-26.768,2.203-39.066,6.258c-0.18-0.105-0.363-0.202-0.543-0.305 c41.398-23.579,69.376-68.116,69.376-119.07C345.302,61.427,283.875,0,208.372,0S71.442,61.427,71.442,136.93 c0,50.953,27.978,95.49,69.376,119.07c-41.398,23.579-69.376,68.116-69.376,119.07c0,75.503,61.427,136.93,136.93,136.93 c24.772,0,48.028-6.612,68.097-18.165c12.297,4.055,25.429,6.258,39.066,6.258c68.938,0,125.023-56.085,125.023-125.023 S384.473,250.047,315.535,250.047z M107.163,136.93c0-55.807,45.403-101.209,101.209-101.209 c55.807,0,101.209,45.402,101.209,101.209S264.179,238.14,208.372,238.14C152.565,238.14,107.163,192.737,107.163,136.93z M208.372,476.279c-55.807,0-101.209-45.402-101.209-101.209c0-55.807,45.403-101.209,101.209-101.209 c9.896,0,19.452,1.454,28.499,4.113c-5.531,4.49-10.672,9.439-15.365,14.792c-4.279-0.68-8.666-1.044-13.135-1.044 c-45.958,0-83.349,37.389-83.349,83.349s37.39,83.349,83.349,83.349c4.469,0,8.855-0.364,13.135-1.044 c4.693,5.353,9.834,10.302,15.365,14.792C227.824,474.825,218.268,476.279,208.372,476.279z M199.611,421.877 c-22.09-4.127-38.867-23.54-38.867-46.807s16.777-42.681,38.867-46.807c-5.862,14.466-9.099,30.264-9.099,46.807 S193.749,407.411,199.611,421.877z M315.535,464.372c-49.241,0-89.302-40.061-89.302-89.302s40.061-89.302,89.302-89.302 c49.241,0,89.302,40.061,89.302,89.302S364.776,464.372,315.535,464.372z"/> </g> </g> <g> <g> <path d="M250.046,375.07h35.721c0-16.414,13.354-29.767,29.767-29.767v-35.721C279.425,309.581,250.046,338.959,250.046,375.07z"/> </g> </g> <g> <g> <rect x="134.053" y="95.252" transform="matrix(0.7071 -0.7071 0.7071 0.7071 -25.9235 163.6392)" width="101.03" height="35.721"/> </g> </g> <g> <g> <rect x="198.512" y="142.883" transform="matrix(0.7071 -0.7071 0.7071 0.7071 -45.656 211.264)" width="67.357" height="35.721"/> </g> </g> </g>
</svg>