<!DOCTYPE svg PUBLIC "-//W3C//DTD SVG 1.1//EN" "http://www.w3.org/Graphics/SVG/1.1/DTD/svg11.dtd">
<!-- Uploaded to: SVG Repo, www.svgrepo.com, Transformed by: SVG Repo Mixer Tools -->
<svg fill="#ffffff" height="800px" width="800px" version="1.1" id="Layer_1" xmlns="http://www.w3.org/2000/svg" xmlns:xlink="http://www.w3.org/1999/xlink" viewBox="0 0 512.001 512.001" xml:space="preserve" stroke="#ffffff">
<g id="SVGRepo_bgCarrier" stroke-width="0"/>
<g id="SVGRepo_tracerCarrier" stroke-linecap="round" stroke-linejoin="round"/>
<g id="SVGRepo_iconCarrier"> <g> <g> <path d="M483.1,322.128c15.936,0,28.901-12.965,28.901-28.901c0-15.936-12.965-28.901-28.901-28.901h-36.512v-16.664H483.1 c15.936,0,28.901-12.965,28.901-28.901s-12.965-28.901-28.901-28.901h-36.512v-16.664h36.511v0 c15.936,0,28.901-12.965,28.901-28.901s-12.965-28.901-28.901-28.901h-36.512V98.731h36.512C499.035,98.731,512,85.766,512,69.83 S499.035,40.93,483.099,40.93l-88.395,0.005c-18.468,0-35.717,7.079-48.571,19.934c-12.854,12.855-19.934,30.103-19.934,48.571 v292.075c0,33.126,23.422,60.873,54.571,67.581c0.173,0.042,0.344,0.087,0.521,0.12c4.538,0.94,9.234,1.437,14.046,1.437h4.393 c0.994,0.266,2.038,0.407,3.117,0.407H483.1c15.936,0,28.901-12.965,28.901-28.901s-12.965-28.901-28.901-28.901h-36.512v-16.664 H483.1c15.936,0,28.901-12.965,28.901-28.901s-12.965-28.901-28.901-28.901h-36.512v-16.664H483.1z M434.548,362.871h48.551 c2.659,0,4.823,2.163,4.823,4.823s-2.163,4.823-4.823,4.823h-48.551c-6.649,0-12.039,5.39-12.039,12.039v40.742 c0,6.649,5.39,12.039,12.039,12.039h48.551c2.659,0,4.823,2.163,4.823,4.823s-2.163,4.823-4.823,4.823h-77.136 c-0.994-0.266-2.038-0.407-3.117-0.407h-7.219V150.892c0-6.649-5.39-12.039-12.039-12.039s-12.039,5.39-12.039,12.039v288.869 c-12.76-7.965-21.273-22.126-21.273-38.245V109.44c0-24.912,19.514-44.427,44.427-44.427l88.395-0.005 c2.659,0,4.823,2.163,4.823,4.823c0,2.659-2.163,4.823-4.823,4.823h-48.551c-6.649,0-12.039,5.39-12.039,12.039v40.742 c0,6.649,5.39,12.039,12.039,12.039h48.551c2.659,0,4.823,2.163,4.823,4.823s-2.163,4.823-4.823,4.823h-48.551 c-6.649,0-12.039,5.39-12.039,12.039V201.9c0,6.649,5.39,12.039,12.039,12.039h48.551c2.659,0,4.823,2.163,4.823,4.823 c0,2.659-2.163,4.823-4.823,4.823h-48.551c-6.649,0-12.039,5.39-12.039,12.039v40.742c0,6.649,5.39,12.039,12.039,12.039h48.551 c2.659,0,4.823,2.163,4.823,4.823s-2.163,4.823-4.823,4.823h-48.551c-6.649,0-12.039,5.39-12.039,12.039v40.742 C422.509,357.481,427.899,362.871,434.548,362.871z"/> </g> </g> <g> <g> <path d="M395.393,112.418c-0.156-0.758-0.385-1.517-0.686-2.251c-0.301-0.722-0.674-1.421-1.108-2.071 c-0.445-0.662-0.939-1.276-1.505-1.83c-0.554-0.554-1.168-1.059-1.83-1.505c-0.65-0.433-1.348-0.807-2.071-1.108 c-0.722-0.301-1.481-0.53-2.251-0.686c-1.553-0.313-3.154-0.313-4.707,0c-0.771,0.156-1.529,0.385-2.251,0.686 s-1.433,0.674-2.083,1.108c-0.65,0.445-1.276,0.951-1.83,1.505c-0.554,0.554-1.059,1.168-1.493,1.83 c-0.433,0.65-0.807,1.348-1.108,2.071c-0.301,0.734-0.53,1.493-0.686,2.251c-0.157,0.783-0.241,1.577-0.241,2.36 s0.084,1.577,0.241,2.348c0.156,0.771,0.385,1.529,0.686,2.251c0.301,0.734,0.674,1.433,1.108,2.083 c0.433,0.662,0.939,1.276,1.493,1.83c0.554,0.554,1.18,1.059,1.83,1.493c0.65,0.433,1.36,0.807,2.083,1.108 c0.722,0.301,1.481,0.53,2.251,0.686c0.783,0.156,1.565,0.241,2.36,0.241c0.783,0,1.565-0.084,2.348-0.241 c0.771-0.157,1.529-0.385,2.251-0.686c0.722-0.301,1.421-0.674,2.071-1.108c0.662-0.433,1.276-0.939,1.83-1.493 c0.566-0.554,1.059-1.168,1.505-1.83c0.433-0.65,0.807-1.348,1.108-2.083c0.301-0.722,0.53-1.481,0.686-2.251 c0.156-0.77,0.229-1.565,0.229-2.348S395.549,113.201,395.393,112.418z"/> </g> </g> <g> <g> <path d="M114.096,395.691c-1.176-9.578-6.012-18.126-13.617-24.067c-8.106-6.334-16.545-7.663-22.199-7.663 c-11.226,0-21.621,5.062-28.517,13.889c-5.942,7.604-8.567,17.068-7.391,26.647c1.176,9.578,6.012,18.126,13.617,24.067 c8.106,6.334,16.545,7.663,22.199,7.663c11.226,0,21.62-5.064,28.517-13.889C112.648,414.735,115.273,405.271,114.096,395.691z M87.733,407.515c-2.302,2.947-5.78,4.636-9.543,4.636c-2.721,0-5.202-0.861-7.374-2.558c-2.538-1.982-4.151-4.834-4.544-8.028 c-0.392-3.195,0.483-6.352,2.466-8.89c2.302-2.946,5.779-4.635,9.542-4.635c2.721,0,5.202,0.861,7.374,2.558 c2.538,1.982,4.151,4.834,4.544,8.028C90.59,401.822,89.715,404.978,87.733,407.515z"/> </g> </g> <g> <g> <path d="M274.667,351.909c-22.343-28.597-60.745-37.419-92.622-23.703l75.307-112.881c0.043-0.065,0.086-0.13,0.128-0.195 c21.911-34.264,25.232-76.953,8.885-114.194l-26.387-60.11c-1.878-4.276-6.059-7.081-10.728-7.197 c-4.69-0.112-8.984,2.481-11.069,6.661l-72.567,145.464L73.046,40.29c-2.085-4.18-6.391-6.78-11.069-6.661 c-4.669,0.114-8.851,2.919-10.728,7.197l-26.387,60.11c-16.348,37.241-13.026,79.93,8.885,114.194 c0.045,0.07,0.09,0.14,0.136,0.208l75.563,112.96c-12.681-5.538-26.655-7.616-40.749-5.886 c-20.75,2.547-39.266,13.024-52.136,29.498c-26.57,34.008-20.518,83.292,13.49,109.861c13.9,10.859,30.664,16.603,48.028,16.603 c3.216,0,6.454-0.197,9.696-0.596c20.75-2.547,39.266-13.024,52.136-29.497c2.101-2.688,3.99-5.495,5.703-8.382 c1.713,2.887,3.602,5.693,5.703,8.382c15.416,19.731,38.472,30.049,61.76,30.049c16.851,0,33.825-5.407,48.102-16.561 C295.185,435.202,301.237,385.918,274.667,351.909z M101.806,273.569l-47.837-71.513c-17.508-27.451-20.148-61.625-7.058-91.443 l16.06-36.585l69.189,138.694L101.806,273.569z M120.937,433.458c-8.911,11.407-21.73,18.659-36.096,20.423 c-14.366,1.765-28.56-2.173-39.966-11.083c-11.407-8.911-18.659-21.732-20.423-36.098c-1.764-14.366,2.172-28.56,11.084-39.966 c8.911-11.407,21.73-18.659,36.096-20.423c2.245-0.276,4.487-0.412,6.713-0.412c12.022,0,23.63,3.978,33.253,11.495 c11.407,8.911,18.659,21.732,20.423,36.098C133.785,407.858,129.848,422.052,120.937,433.458z M144.773,340.687l-13.277-22.692 c-0.001-0.002-0.002-0.006-0.005-0.008l-13.461-23.005L228.257,74.028l16.06,36.585c13.091,29.82,10.449,63.998-7.062,91.449 L144.773,340.687z M246.354,442.797c-23.545,18.396-57.668,14.205-76.065-9.34c-8.911-11.406-12.847-25.6-11.083-39.966 c1.764-14.366,9.017-27.186,20.423-36.098c9.624-7.518,21.231-11.495,33.253-11.495c2.226,0,4.468,0.136,6.713,0.412 c14.367,1.764,27.186,9.017,36.098,20.423C274.089,390.28,269.9,424.402,246.354,442.797z"/> </g> </g> <g> <g> <path d="M241.463,377.851c-6.895-8.826-17.289-13.889-28.517-13.889c-5.654,0-14.093,1.329-22.199,7.662 c-7.605,5.942-12.441,14.49-13.617,24.068c-1.176,9.579,1.448,19.043,7.39,26.647c6.896,8.828,17.29,13.891,28.519,13.891 c5.652,0,14.092-1.329,22.197-7.663c7.597-5.935,12.429-14.483,13.605-24.07C250.019,394.91,247.398,385.447,241.463,377.851z M224.944,401.563c-0.394,3.202-2.002,6.054-4.531,8.029c-2.172,1.698-4.653,2.558-7.374,2.558c-3.765,0-7.244-1.689-9.546-4.636 c-1.982-2.535-2.858-5.693-2.466-8.888s2.006-6.046,4.544-8.029c2.172-1.698,4.653-2.558,7.374-2.558 c3.763,0,7.241,1.689,9.543,4.636C224.466,395.204,225.336,398.36,224.944,401.563z"/> </g> </g> <g> <g> <path d="M212.063,161.67c-5.911-3.041-13.171-0.718-16.214,5.194l-55.881,108.549c-3.043,5.911-0.718,13.171,5.194,16.214 c1.763,0.908,3.645,1.337,5.501,1.337c4.365,0,8.578-2.383,10.714-6.531l55.881-108.549 C220.3,171.971,217.974,164.713,212.063,161.67z"/> </g> </g> <g> <g> <path d="M234.889,137.905c-0.156-0.77-0.385-1.517-0.686-2.251c-0.301-0.722-0.674-1.421-1.108-2.071 c-0.445-0.662-0.939-1.276-1.493-1.83c-0.566-0.566-1.18-1.059-1.842-1.505c-0.65-0.433-1.348-0.807-2.071-1.108 s-1.481-0.53-2.251-0.686c-1.553-0.313-3.154-0.313-4.707,0c-0.77,0.156-1.529,0.385-2.251,0.686 c-0.722,0.301-1.433,0.674-2.083,1.108c-0.662,0.445-1.276,0.939-1.83,1.505c-0.554,0.554-1.059,1.168-1.493,1.83 c-0.433,0.65-0.807,1.348-1.108,2.071c-0.301,0.734-0.53,1.481-0.686,2.251c-0.156,0.783-0.241,1.565-0.241,2.36 c0,3.166,1.288,6.272,3.527,8.512c0.555,0.554,1.168,1.059,1.83,1.493c0.65,0.433,1.36,0.807,2.083,1.108s1.481,0.53,2.251,0.686 c0.77,0.156,1.565,0.241,2.348,0.241c0.795,0,1.577-0.084,2.36-0.241c0.771-0.156,1.529-0.385,2.251-0.686 s1.421-0.674,2.071-1.108c0.662-0.433,1.276-0.939,1.842-1.493c2.239-2.239,3.515-5.345,3.515-8.512 C235.118,139.47,235.046,138.687,234.889,137.905z"/> </g> </g> </g>
</svg>